<?xml version="1.0" encoding="iso-8859-1"?>
<!-- Generator: Adobe Illustrator 19.0.0, SVG Export Plug-In . SVG Version: 6.00 Build 0)  -->
<svg version="1.1" id="Layer_1" xmlns="http://www.w3.org/2000/svg" xmlns:xlink="http://www.w3.org/1999/xlink" x="0px" y="0px"
	 viewBox="0 0 504.123 504.123" style="enable-background:new 0 0 504.123 504.123;" xml:space="preserve">
<path style="fill:#839B99;" d="M196.569,358.766c0,4.616-3.742,8.342-8.35,8.342H68.191c-4.608,0-8.35-3.726-8.35-8.342v-23.678
	c0-4.616,3.742-8.342,8.35-8.342h120.029c4.608,0,8.35,3.726,8.35,8.342V358.766z"/>
<path style="fill:#F46F0C;" d="M491.977,220.629l-40.432-15.336v-33.17c0-3.828-3.104-6.94-6.932-6.94l-112.033-15.447
	c-3.82,0-6.924-4.427-6.924,22.386v150.741c0,3.828,3.104,6.924,6.924,6.924h89.403c0.961,2.678,3.466,4.616,6.459,4.616h63.535
	c3.828,0,6.932-3.111,6.932-6.94v-97.02C498.909,226.615,495.805,220.629,491.977,220.629z"/>
<path style="fill:#DD5D05;" d="M325.656,249.167v73.689c0,3.828,3.104,6.924,6.924,6.924h89.403
	c0.961,2.678,3.466,4.616,6.459,4.616h63.535c3.828,0,6.932-3.111,6.932-6.94v-78.289H325.656z"/>
<path style="fill:#88A5A3;" d="M313.817,319.799c0,4.616-3.749,8.342-8.357,8.342H13.217c-4.608,0-8.357-3.726-8.357-8.342V111.045
	c0-4.616,3.749-8.357,8.357-8.357h292.25c4.608,0,8.357,3.742,8.357,8.357v208.754H313.817z"/>
<path id="SVGCleanerId_0" style="fill:#A2BCBA;" d="M504.123,338.916c0,4.616-3.742,8.357-8.35,8.357H8.35
	c-4.616,0-8.35-3.742-8.35-8.357v-10.429c0-4.616,3.734-8.357,8.35-8.357h487.424c4.608,0,8.35,3.742,8.35,8.357V338.916z"/>
<g>
	<path id="SVGCleanerId_0_1_" style="fill:#A2BCBA;" d="M504.123,338.916c0,4.616-3.742,8.357-8.35,8.357H8.35
		c-4.616,0-8.35-3.742-8.35-8.357v-10.429c0-4.616,3.734-8.357,8.35-8.357h487.424c4.608,0,8.35,3.742,8.35,8.357V338.916z"/>
</g>
<path style="fill:#8CADAA;" d="M8.35,332.654c-4.238,0-7.593,3.198-8.129,7.31c0.536,4.096,3.891,7.31,8.129,7.31h487.424
	c4.238,0,7.593-3.214,8.129-7.31c-0.536-4.104-3.891-7.31-8.129-7.31H8.35z"/>
<path style="fill:#A2BCBA;" d="M13.217,328.133c-4.608,0-8.357-3.726-8.357-8.342V111.045c0-4.616,3.749-8.357,8.357-8.357h292.25
	c4.608,0,8.357,3.742,8.357,8.357"/>
<path style="fill:#AFCECB;" d="M4.86,111.045c0-4.616,3.749-8.357,8.357-8.357h292.25c4.608,0,8.357,3.742,8.357,8.357"/>
<path d="M37.66,349.054c0-30.704,24.915-55.627,55.635-55.627c30.712,0,55.627,24.923,55.627,55.627"/>
<path style="fill:#ADC4C3;" d="M151.166,349.054h-4.49c0-29.428-23.946-53.382-53.374-53.382c-29.444,0-53.374,23.954-53.374,53.382
	h-4.521c0-31.925,25.986-57.88,57.895-57.88S151.166,317.137,151.166,349.054z"/>
<circle style="fill:#203547;" cx="93.286" cy="351.228" r="50.208"/>
<path style="fill:#122130;" d="M128.78,315.719c19.621,19.614,19.621,51.381,0,70.987c-19.606,19.614-51.381,19.614-70.979,0"/>
<circle style="fill:#6E7577;" cx="93.286" cy="351.228" r="31.586"/>
<path style="fill:#4C5456;" d="M115.602,328.889c12.343,12.351,12.327,32.327,0,44.646c-12.304,12.319-32.303,12.335-44.654,0"/>
<path style="fill:#CED8DD;" d="M120.919,351.228c0,15.25-12.359,27.648-27.624,27.648c-15.273,0-27.648-12.398-27.648-27.648
	c0-15.273,12.367-27.648,27.648-27.648C108.552,323.58,120.919,335.947,120.919,351.228z"/>
<path style="fill:#B2BBC1;" d="M112.813,331.67c10.799,10.799,10.799,28.294,0,39.093c-10.791,10.784-28.286,10.768-39.07,0"/>
<path style="opacity:0.2;fill:#888F91;enable-background:new    ;" d="M106.126,351.228c0,7.073-5.75,14.88-12.832,14.88
	c-7.081,0-12.839-7.798-12.839-14.88c0-7.089,5.758-12.832,12.839-12.832C100.376,338.397,106.126,344.131,106.126,351.228z"/>
<circle style="fill:#E7EFF2;" cx="93.286" cy="351.228" r="12.832"/>
<path style="fill:#DAE6EA;" d="M93.294,338.397c7.073,0,12.832,5.742,12.832,12.832c0,7.073-5.75,12.832-12.832,12.832"/>
<path style="fill:#666E70;" d="M93.294,323.58c-1.26,0-2.489,0.126-3.71,0.291c0.504,3.97,1.969,6.845,3.71,6.845
	c1.725,0,3.174-2.875,3.702-6.845C95.783,323.706,94.555,323.58,93.294,323.58z"/>
<path style="fill:#535A5B;" d="M93.294,330.717c1.725,0,3.174-2.875,3.702-6.845c-1.205-0.165-2.442-0.291-3.702-0.291"/>
<path style="fill:#666E70;" d="M89.592,378.49c2.458,0.339,4.939,0.339,7.396,0c-0.536-3.938-1.977-6.766-3.702-6.766
	C91.553,371.716,90.136,374.552,89.592,378.49z"/>
<path style="fill:#535A5B;" d="M96.989,378.49c-0.536-3.938-1.977-6.766-3.702-6.766"/>
<path style="fill:#666E70;" d="M71.31,334.505c3.198,2.45,6.246,3.45,7.467,2.213c1.237-1.213,0.244-4.277-2.206-7.475
	C74.587,330.764,72.83,332.52,71.31,334.505z"/>
<path style="fill:#535A5B;" d="M78.777,336.719c1.237-1.213,0.244-4.277-2.206-7.475"/>
<path style="fill:#666E70;" d="M115.168,367.872c-3.151-2.402-6.168-3.371-7.389-2.15c-1.221,1.221-0.244,4.246,2.158,7.396
	c0.977-0.756,1.969-1.465,2.867-2.355C113.711,369.857,114.428,368.857,115.168,367.872z"/>
<path style="fill:#535A5B;" d="M112.813,370.763c0.89-0.906,1.615-1.906,2.355-2.891c-3.151-2.402-6.168-3.371-7.389-2.15"/>
<path style="fill:#666E70;" d="M65.938,354.946c3.97-0.536,6.829-1.985,6.829-3.726c0.024-1.741-2.859-3.182-6.829-3.726
	c-0.173,1.213-0.291,2.458-0.291,3.726C65.646,352.473,65.764,353.701,65.938,354.946z"/>
<path style="fill:#535A5B;" d="M72.767,351.228c0.024-1.741-2.859-3.182-6.829-3.726c-0.173,1.213-0.291,2.458-0.291,3.726"/>
<path style="fill:#666E70;" d="M113.782,351.228c0,1.725,2.828,3.151,6.766,3.694c0.347-2.458,0.347-4.939,0.024-7.396
	C116.618,348.062,113.782,349.487,113.782,351.228z"/>
<path style="fill:#535A5B;" d="M120.58,347.518c-3.962,0.536-6.79,1.969-6.79,3.71"/>
<path style="fill:#666E70;" d="M71.326,367.935c1.504,1.985,3.261,3.742,5.246,5.262c2.458-3.198,3.45-6.262,2.206-7.459
	C77.556,364.501,74.524,365.485,71.326,367.935z"/>
<path style="fill:#535A5B;" d="M76.572,373.197c2.458-3.198,3.45-6.262,2.206-7.459"/>
<path style="fill:#666E70;" d="M110.009,329.259c-2.458,3.182-3.442,6.246-2.221,7.459c1.213,1.229,4.293,0.228,7.475-2.198
	C113.751,332.52,111.994,330.764,110.009,329.259z"/>
<path style="fill:#535A5B;" d="M110.009,329.259c-2.458,3.182-3.442,6.246-2.221,7.459"/>
<path d="M367.6,349.054c0-30.704,24.907-55.627,55.635-55.627c30.712,0,55.627,24.923,55.627,55.627"/>
<path style="fill:#ADC4C3;" d="M481.107,349.054h-4.49c0-29.428-23.938-53.382-53.374-53.382c-29.436,0-53.39,23.954-53.39,53.382
	h-4.49c0-31.925,25.97-57.88,57.888-57.88S481.107,317.137,481.107,349.054z"/>
<circle style="fill:#203547;" cx="423.227" cy="351.228" r="50.2"/>
<path style="fill:#122130;" d="M458.72,315.719c19.614,19.614,19.614,51.381,0,70.987c-19.614,19.614-51.397,19.614-70.987,0"/>
<circle style="fill:#6E7577;" cx="423.227" cy="351.228" r="31.586"/>
<path style="fill:#4C5456;" d="M445.55,328.889c12.335,12.351,12.32,32.327,0,44.646c-12.319,12.319-32.319,12.335-44.654,0"/>
<path style="fill:#CED8DD;" d="M450.859,351.228c0,15.25-12.351,27.648-27.632,27.648c-15.265,0-27.632-12.398-27.632-27.648
	c0-15.273,12.359-27.648,27.632-27.648C438.508,323.58,450.859,335.947,450.859,351.228z"/>
<path style="fill:#B2BBC1;" d="M442.762,331.67c10.799,10.799,10.799,28.294,0,39.093c-10.791,10.784-28.278,10.768-39.085,0"/>
<path style="opacity:0.2;fill:#888F91;enable-background:new    ;" d="M436.074,351.228c0,7.073-5.75,14.88-12.847,14.88
	c-7.097,0-12.832-7.798-12.832-14.88c0-7.089,5.742-12.832,12.832-12.832C430.316,338.397,436.074,344.131,436.074,351.228z"/>
<circle style="fill:#E7EFF2;" cx="423.227" cy="351.228" r="12.839"/>
<path style="fill:#DAE6EA;" d="M423.227,338.397c7.089,0,12.847,5.742,12.847,12.832c0,7.073-5.75,12.832-12.847,12.832"/>
<path style="fill:#666E70;" d="M423.227,323.58c-1.26,0-2.489,0.126-3.71,0.291c0.504,3.97,1.977,6.845,3.71,6.845
	c1.725,0,3.182-2.875,3.71-6.845C425.74,323.706,424.511,323.58,423.227,323.58z"/>
<path style="fill:#535A5B;" d="M423.227,330.717c1.725,0,3.182-2.875,3.71-6.845c-1.197-0.165-2.434-0.291-3.71-0.291"/>
<path style="fill:#666E70;" d="M419.541,378.49c2.45,0.339,4.923,0.339,7.396,0c-0.551-3.938-1.993-6.766-3.71-6.766
	C421.502,371.716,420.061,374.552,419.541,378.49z"/>
<path style="fill:#535A5B;" d="M426.937,378.49c-0.551-3.938-1.993-6.766-3.71-6.766"/>
<path style="fill:#666E70;" d="M401.25,334.505c3.174,2.45,6.254,3.45,7.475,2.213c1.229-1.213,0.221-4.277-2.206-7.475
	C404.535,330.764,402.779,332.52,401.25,334.505z"/>
<path style="fill:#535A5B;" d="M408.734,336.719c1.229-1.213,0.221-4.277-2.206-7.475"/>
<path style="fill:#666E70;" d="M445.109,367.872c-3.135-2.402-6.144-3.371-7.389-2.15c-1.229,1.213-0.244,4.246,2.15,7.396
	c0.985-0.756,2.009-1.465,2.883-2.355C443.66,369.857,444.369,368.857,445.109,367.872z"/>
<path style="fill:#535A5B;" d="M442.762,370.763c0.898-0.906,1.607-1.906,2.347-2.891c-3.135-2.402-6.144-3.371-7.389-2.15"/>
<path style="fill:#666E70;" d="M395.878,354.946c3.954-0.536,6.829-1.985,6.829-3.726c0.032-1.741-2.875-3.182-6.829-3.726
	c-0.165,1.213-0.276,2.458-0.276,3.726C395.603,352.473,395.705,353.701,395.878,354.946z"/>
<path style="fill:#535A5B;" d="M402.708,351.228c0.032-1.741-2.875-3.182-6.829-3.726c-0.165,1.213-0.276,2.458-0.276,3.726"/>
<path style="fill:#666E70;" d="M443.723,351.228c0,1.725,2.844,3.151,6.766,3.694c0.354-2.458,0.354-4.939,0.031-7.396
	C446.566,348.062,443.723,349.487,443.723,351.228z"/>
<path style="fill:#535A5B;" d="M450.521,347.518c-3.954,0.536-6.798,1.969-6.798,3.71"/>
<path style="fill:#666E70;" d="M401.274,367.935c1.497,1.985,3.261,3.742,5.246,5.262c2.434-3.198,3.442-6.262,2.206-7.459
	C407.505,364.501,404.464,365.485,401.274,367.935z"/>
<path style="fill:#535A5B;" d="M406.52,373.197c2.434-3.198,3.442-6.262,2.206-7.459"/>
<path style="fill:#666E70;" d="M439.958,329.259c-2.442,3.182-3.466,6.246-2.237,7.459c1.237,1.229,4.293,0.228,7.475-2.198
	C443.691,332.52,441.927,330.764,439.958,329.259z"/>
<path style="fill:#535A5B;" d="M439.958,329.259c-2.442,3.182-3.466,6.246-2.237,7.459"/>
<path style="fill:#A2BCBA;" d="M402.306,217.06c0,1.308-1.048,2.355-2.339,2.355h-11.965c-1.284,0-2.347-1.048-2.347-2.355l0,0
	c0-1.292,1.063-2.339,2.347-2.339h11.965C401.258,214.721,402.306,215.769,402.306,217.06L402.306,217.06z"/>
<path style="fill:#80BAC4;" d="M451.545,205.284v-33.17c0-0.953-0.205-1.843-0.536-2.678h-63.512c-4.624,0-8.357,3.742-8.357,8.357
	V197.1c0,4.616,3.734,8.357,8.357,8.357h64.48L451.545,205.284z"/>
<g>
	<path style="fill:#DD5D05;" d="M347.223,208.459c0,0.386-0.315,0.693-0.701,0.693h-11.492c-0.37,0-0.693-0.307-0.693-0.693l0,0
		c0-0.386,0.323-0.693,0.693-0.693h11.492C346.908,207.766,347.223,208.073,347.223,208.459L347.223,208.459z"/>
	<path style="fill:#DD5D05;" d="M347.223,214.028c0,0.386-0.315,0.693-0.701,0.693h-11.492c-0.37,0-0.693-0.307-0.693-0.693l0,0
		c0-0.386,0.323-0.693,0.693-0.693h11.492C346.908,213.335,347.223,213.642,347.223,214.028L347.223,214.028z"/>
	<path style="fill:#DD5D05;" d="M347.223,219.597c0,0.386-0.315,0.693-0.701,0.693h-11.492c-0.37,0-0.693-0.307-0.693-0.693l0,0
		c0-0.386,0.323-0.693,0.693-0.693h11.492C346.908,218.904,347.223,219.211,347.223,219.597L347.223,219.597z"/>
	<path style="fill:#DD5D05;" d="M347.223,225.166c0,0.386-0.315,0.693-0.701,0.693h-11.492c-0.37,0-0.693-0.307-0.693-0.693l0,0
		c0-0.386,0.323-0.693,0.693-0.693h11.492C346.908,224.473,347.223,224.78,347.223,225.166L347.223,225.166z"/>
	<path style="fill:#DD5D05;" d="M347.223,230.735c0,0.386-0.315,0.693-0.701,0.693h-11.492c-0.37,0-0.693-0.307-0.693-0.693l0,0
		c0-0.386,0.323-0.693,0.693-0.693h11.492C346.908,230.042,347.223,230.349,347.223,230.735L347.223,230.735z"/>
</g>
<path style="fill:#FFE003;" d="M487.44,255.673c0,4.474-3.623,8.09-8.09,8.09l0,0c-4.482,0-8.097-3.615-8.097-8.09V238.47
	c0-4.474,3.616-8.105,8.097-8.105l0,0c4.466,0,8.09,3.631,8.09,8.105V255.673z"/>
<path style="fill:#DD5D05;" d="M479.342,263.763L479.342,263.763c-4.482,0-8.097-3.615-8.097-8.09V238.47
	c0-4.474,3.616-8.105,8.097-8.105l0,0"/>
<g>
	<path style="fill:#A2BCBA;" d="M502.044,270.427c0,1.371-1.126,2.473-2.489,2.473h-16.959c-1.371,0-2.473-1.111-2.473-2.473l0,0
		c0-1.371,1.111-2.473,2.473-2.473h16.959C500.925,267.953,502.044,269.056,502.044,270.427L502.044,270.427z"/>
	<path style="fill:#A2BCBA;" d="M502.044,278.784c0,1.371-1.126,2.473-2.489,2.473h-16.959c-1.371,0-2.473-1.111-2.473-2.473l0,0
		c0-1.371,1.111-2.489,2.473-2.489h16.959C500.925,276.287,502.044,277.413,502.044,278.784L502.044,278.784z"/>
	<path style="fill:#A2BCBA;" d="M502.044,287.118c0,1.371-1.126,2.473-2.489,2.473h-16.959c-1.371,0-2.473-1.111-2.473-2.473l0,0
		c0-1.371,1.111-2.473,2.473-2.473h16.959C500.925,284.644,502.044,285.747,502.044,287.118L502.044,287.118z"/>
	<path style="fill:#A2BCBA;" d="M502.044,295.475c0,1.371-1.126,2.473-2.489,2.473h-16.959c-1.371,0-2.473-1.111-2.473-2.473l0,0
		c0-1.371,1.111-2.473,2.473-2.473h16.959C500.925,292.994,502.044,294.105,502.044,295.475L502.044,295.475z"/>
	<path style="fill:#A2BCBA;" d="M502.044,303.825c0,1.371-1.126,2.473-2.489,2.473h-16.959c-1.371,0-2.473-1.111-2.473-2.473l0,0
		c0-1.371,1.111-2.473,2.473-2.473h16.959C500.925,301.351,502.044,302.454,502.044,303.825L502.044,303.825z"/>
	<path style="fill:#A2BCBA;" d="M502.044,312.182c0,1.371-1.126,2.473-2.489,2.473h-16.959c-1.371,0-2.473-1.111-2.473-2.473l0,0
		c0-1.371,1.111-2.489,2.473-2.489h16.959C500.925,309.685,502.044,310.812,502.044,312.182L502.044,312.182z"/>
</g>
<g>
	<path style="fill:#56A0A8;" d="M403.527,169.444l-24.387,24.403v3.261c0,2.135,0.859,4.033,2.182,5.506l33.17-33.17
		L403.527,169.444L403.527,169.444z"/>
	<polygon style="fill:#56A0A8;" points="431.191,169.444 423.723,169.444 387.718,205.458 395.185,205.458 	"/>
	<polygon style="fill:#56A0A8;" points="451.545,197.439 451.545,179.905 426,205.458 443.542,205.458 	"/>
</g>
<path style="fill:#F46F0C;" d="M439.162,208.979c0,1.245-1.883,2.245-4.206,2.245l0,0c-2.355,0-4.23-1-4.23-2.245v-40.708
	c0-1.26,1.875-2.276,4.23-2.276l0,0c2.324,0,4.206,1.016,4.206,2.276V208.979z"/>
<path style="fill:#10FCAD;" d="M96.784,248.671c0.016,5.648,4.553,10.185,10.177,10.185h89.545l-27.924,27.939
	c-5.947,5.971-5.947,15.628,0,21.583c5.955,5.971,15.62,5.971,21.591,0l59.691-59.691l-59.715-59.707
	c-5.947-5.955-15.612-5.955-21.567,0c-5.971,5.955-5.947,15.628,0,21.583l27.955,27.939h-89.576
	C101.36,238.501,96.8,243.054,96.784,248.671z"/>
<path style="fill:#06EAAE;" d="M196.506,258.855l-27.924,27.939c-0.788,0.788-1.449,1.646-2.04,2.536l40.661-40.645l-40.661-40.661
	c0.575,0.89,1.237,1.757,2.04,2.536l27.955,27.939H153.86h-46.899c-5.6,0-10.161,4.553-10.177,10.169
	c0.016,5.648,4.553,10.185,10.177,10.185h46.899H196.506z"/>
<path style="fill:#05C6B3;" d="M190.157,188.979c-5.947-5.955-15.612-5.955-21.567,0c-5.971,5.955-5.947,15.628,0,21.583
	l27.955,27.939"/>
<g>
	<path style="fill:#FFCE00;" d="M191.291,194.674c-0.032-5.632-4.569-10.185-10.177-10.185H91.561l27.924-27.924
		c5.955-5.971,5.955-15.628,0-21.599c-5.955-5.955-15.62-5.955-21.591,0l-59.691,59.691l59.707,59.707
		c5.955,5.971,15.62,5.971,21.575,0c5.971-5.955,5.955-15.628,0-21.583l-27.963-27.939h89.592
		C186.707,204.843,191.26,200.29,191.291,194.674z"/>
	<path style="fill:#FFCE00;" d="M119.485,156.566c5.955-5.971,5.955-15.628,0-21.599c-5.955-5.955-15.62-5.955-21.591,0"/>
</g>
<g>
	<path style="fill:#FF9700;" d="M191.291,194.674c-0.032-5.632-4.569-10.185-10.177-10.185"/>
	<path style="fill:#FF9700;" d="M97.91,254.366c5.955,5.971,15.62,5.971,21.575,0c5.971-5.955,5.955-15.628,0-21.583l-27.963-27.939
		"/>
</g>
<path style="fill:#FFAA00;" d="M91.561,184.489l27.924-27.924c0.78-0.803,1.441-1.646,2.04-2.552l-40.661,40.645l40.661,40.676
	c-0.567-0.906-1.245-1.772-2.04-2.552l-27.963-27.939h42.677h46.915c5.593,0,10.145-4.553,10.177-10.169
	c-0.032-5.632-4.569-10.185-10.177-10.185h-46.915H91.561z"/>
<g>
</g>
<g>
</g>
<g>
</g>
<g>
</g>
<g>
</g>
<g>
</g>
<g>
</g>
<g>
</g>
<g>
</g>
<g>
</g>
<g>
</g>
<g>
</g>
<g>
</g>
<g>
</g>
<g>
</g>
</svg>
